<svg width="16" height="16" viewBox="0 0 16 16" fill="none" xmlns="http://www.w3.org/2000/svg">
<path d="M7.10938 1.00781C10.1793 1.16347 12.6211 3.7019 12.6211 6.81055L12.6133 7.10938C12.547 8.41701 12.0467 9.6093 11.2559 10.5488L14.9111 14.2031C15.1064 14.3984 15.1064 14.7159 14.9111 14.9111C14.7159 15.1064 14.3984 15.1064 14.2031 14.9111L10.5488 11.2559C9.53822 12.1067 8.23492 12.621 6.81055 12.6211L6.51172 12.6133C3.54059 12.4629 1.15845 10.0804 1.00781 7.10938L1 6.81055C1 3.6016 3.6016 1 6.81055 1L7.10938 1.00781ZM6.81055 2C4.15388 2 2 4.15388 2 6.81055C2.00012 9.46711 4.15396 11.6211 6.81055 11.6211C9.46703 11.621 11.621 9.46703 11.6211 6.81055C11.6211 4.15396 9.46711 2.00012 6.81055 2Z" fill="#7EDCFB"/>
</svg>
