<svg width="52" height="52" viewBox="0 0 52 52" fill="none" xmlns="http://www.w3.org/2000/svg">
<g opacity="0.5">
<path opacity="0.2" d="M7.25391 49.0423C7.25378 49.4276 7.69004 49.8092 8.53776 50.1651C9.38549 50.5211 10.6281 50.8446 12.1946 51.117C13.7611 51.3895 15.6208 51.6056 17.6676 51.753C19.7144 51.9005 21.9081 51.9764 24.1235 51.9764C26.3389 51.9764 28.5327 51.9005 30.5794 51.753C32.6262 51.6056 34.486 51.3895 36.0525 51.117C37.619 50.8446 38.8615 50.5211 39.7093 50.1651C40.557 49.8092 40.9932 49.4276 40.9931 49.0423C40.9932 48.657 40.557 48.2755 39.7093 47.9195C38.8615 47.5636 37.619 47.2401 36.0525 46.9676C34.486 46.6952 32.6262 46.4791 30.5794 46.3316C28.5327 46.1842 26.3389 46.1083 24.1235 46.1083C21.9081 46.1083 19.7144 46.1842 17.6676 46.3316C15.6208 46.4791 13.7611 46.6952 12.1946 46.9676C10.6281 47.2401 9.38549 47.5636 8.53776 47.9195C7.69004 48.2755 7.25378 48.657 7.25391 49.0423Z" fill="#1FC6FF"/>
<path d="M24.5455 11.7367L21.5933 14.6706L4.70215 19.6935L7.65429 15.4585L24.5455 11.7367Z" fill="#045B7D"/>
<path d="M24.5454 11.7367L41.4366 15.4585V36.4602L24.5454 42.7549L7.65479 36.4602V15.4585L24.5454 11.7367Z" fill="#1FC6FF"/>
<path d="M24.5454 11.7367V20.5395L7.65479 15.458L24.5454 11.7367Z" fill="#045B7D"/>
<path d="M24.5454 11.7367L41.4366 15.4585L24.5454 20.5389V11.7367Z" fill="#03455B"/>
<path d="M24.5454 20.5389L41.4366 15.4585V36.4602L24.5454 42.7549V20.5389Z" fill="#075C87" fill-opacity="0.6"/>
<path d="M24.5454 20.5389L41.4366 15.4585L47.2784 21.1676L30.3872 27.4622L24.5454 20.5389Z" fill="#1FC6FF"/>
<path d="M24.7887 0C23.1531 0 21.8713 0.46668 20.9208 1.40059C19.9488 2.33395 19.4849 3.62341 19.4849 5.26785H22.0041C22.0041 4.33449 22.181 3.60074 22.5564 3.08927C22.9767 2.46721 23.6612 2.17858 24.6338 2.17858C25.3853 2.17858 25.9819 2.37819 26.4016 2.80063C26.7997 3.22308 27.0209 3.80145 27.0209 4.53465C27.0209 5.09035 26.8218 5.62394 26.4237 6.11274L26.1583 6.42404C24.7223 7.7135 23.8603 8.64686 23.5733 9.24679C23.2636 9.84729 23.1309 10.5805 23.1309 11.4254V11.7367H25.6722V11.4254C25.6722 10.8918 25.7828 10.4251 26.004 9.98054C26.2031 9.58022 26.4906 9.20256 26.8882 8.86914C27.9487 7.93578 28.5896 7.33529 28.7886 7.113C29.3194 6.40192 29.6064 5.49013 29.6064 4.37872C29.6064 3.02292 29.1641 1.9563 28.2805 1.17831C27.3963 0.377657 26.2252 0 24.7887 0ZM24.5343 12.5749C24.0555 12.5749 23.664 12.7303 23.3372 13.0411C23.011 13.3524 22.8583 13.7521 22.8583 14.2409C22.8583 14.7292 23.011 15.129 23.3372 15.4397C23.6634 15.7505 24.056 15.928 24.5343 15.928C25.0137 15.928 25.4052 15.7731 25.732 15.4618C26.0582 15.1511 26.2324 14.7292 26.2324 14.2404C26.2324 13.7521 26.0582 13.3524 25.7535 13.0411C25.4273 12.7303 25.0137 12.5749 24.5343 12.5749Z" fill="#1FC6FF"/>
</g>
</svg>
