<svg width="1920" height="70" viewBox="0 0 1920 70" fill="none" xmlns="http://www.w3.org/2000/svg">
<rect width="1920" height="70" fill="#041A21"/>
<path d="M627.206 65L631.21 69H960" stroke="#1FC6FF" stroke-width="2"/>
<path d="M1292.5 65L1288.5 69H960" stroke="#1FC6FF" stroke-width="2"/>
<path d="M627.206 8L631.21 4H960" stroke="#1FC6FF" stroke-width="2"/>
<path d="M1292.5 8L1288.5 4H960" stroke="#1FC6FF" stroke-width="2"/>
<path opacity="0.7" d="M24 64.5H140" stroke="#136480"/>
<path d="M292 64.5H336.234H347.702H623" stroke="#136480"/>
<path d="M146 64.5H178" stroke="#1FC6FF"/>
<path d="M184 64.5H216" stroke="#1FC6FF"/>
<path opacity="0.7" d="M222 64.5H286" stroke="#136480"/>
<path d="M24 8C188.801 8 458.199 8 623 8" stroke="#136480"/>
<path d="M24 8H88" stroke="#1FC6FF"/>
<path d="M96 8L112 8" stroke="#1FC6FF"/>
<path d="M120 8L136 8" stroke="#1FC6FF"/>
<path d="M20 16H12L8 20.786V51.214L12 56H20" stroke="#1FC6FF"/>
<path d="M1896 64.5H1780" stroke="#136480"/>
<path d="M1628 64.9999L1531.78 64.9999L1506.83 64.9999L1296 65" stroke="#136480"/>
<path d="M1774 64.5H1742" stroke="#1FC6FF"/>
<path d="M1736 64.5H1704" stroke="#1FC6FF"/>
<path d="M1698 64.5H1634" stroke="#136480"/>
<path d="M1896 7.99754L1296 7.99771" stroke="#13647F"/>
<path d="M1900 16H1908L1912 20.786V51.214L1908 56H1900" stroke="#1FC6FF"/>
<path d="M1896 8H1832" stroke="#1FC6FF"/>
<path d="M1824 8L1808 8" stroke="#1FC6FF"/>
<path d="M1800 8L1784 8" stroke="#1FC6FF"/>
<mask id="mask0_28_1669" style="mask-type:alpha" maskUnits="userSpaceOnUse" x="455" y="4" width="1070" height="65">
<path d="M631.5 4L627.5 7.5H458.5L455 12.5V60.5L458.5 65H627L631.5 69H1288L1292 65.5L1521.5 65L1525 60V13L1521 8L1292.5 7.5L1289.5 5L631.5 4Z" fill="url(#paint0_linear_28_1669)"/>
</mask>
<g mask="url(#mask0_28_1669)">
<path d="M630.5 4L626.5 7.5H458L454 12.5V60.5L457.5 65H626.5L630.5 68.5L1288 69L1292 65.5H1460L1464 60V13L1460.4 7.5H1292.09L1289.5 5L630.5 4Z" fill="url(#paint1_linear_28_1669)" fill-opacity="0.63"/>
</g>
<path d="M737.6 45.752C742.229 43.8533 745.579 40.7493 747.648 36.44H737.6V32.312H749.056C749.504 30.52 749.76 28.5787 749.824 26.488H738.944V22.36H765.056V26.488H754.048C753.984 28.472 753.771 30.4133 753.408 32.312H766.4V36.44H757.44V45.752H766.72V49.88H753.28V36.44H752.224C749.813 42.8613 744.939 47.5973 737.6 50.648V45.752ZM769.248 45.816C773.195 44.2587 776.277 41.9973 778.496 39.032C780.715 36.0453 781.824 32.408 781.824 28.12L781.792 21.304H786.208V28.12C786.208 32.408 787.307 36.0453 789.504 39.032C791.723 41.9973 794.805 44.2587 798.752 45.816V50.584C795.232 49.4533 792.224 47.8427 789.728 45.752C787.253 43.6613 785.344 41.1973 784 38.36C782.656 41.1973 780.736 43.6613 778.24 45.752C775.765 47.8427 772.768 49.4533 769.248 50.584V45.816ZM811.616 50.52C812.853 48.0453 813.739 45.6987 814.272 43.48C814.827 41.24 815.104 38.7653 815.104 36.056V22.232H827.968V46.008H830.816V50.2H823.84V26.52H819.232V36.056C819.232 38.808 818.997 41.2933 818.528 43.512C818.08 45.7307 817.301 48.0667 816.192 50.52H811.616ZM801.056 48.536C802.208 42.776 802.784 36.5893 802.784 29.976H806.208C806.208 37.0373 805.707 43.224 804.704 48.536H801.056ZM801.92 24.696H807.328V21.24H811.36V24.696H814.4V28.664H811.36V32.568L813.888 34.136V38.968L811.36 37.4V50.2H807.328V28.664H801.92V24.696ZM833.28 31.992C835.755 29.1547 837.483 25.624 838.464 21.4H842.656C842.187 24.2587 841.397 26.904 840.288 29.336V50.36H836.128V35.8C835.296 36.76 834.347 37.688 833.28 38.584V31.992ZM842.112 32.76H850.304V25.976C847.936 26.04 845.568 26.072 843.2 26.072V22.04C849.6 22.04 855.744 21.7627 861.632 21.208V25.24C859.008 25.496 856.64 25.6773 854.528 25.784V32.76H862.72V36.856H854.528V45.304H862.272V49.4H842.56V45.304H850.304V36.856H842.112V32.76ZM865.632 33.624C869.685 32.9413 873.077 32.088 875.808 31.064C874.485 30.0827 873.301 29.0053 872.256 27.832C870.613 28.9627 868.821 29.688 866.88 30.008V25.848C868.075 25.3573 869.099 24.7813 869.952 24.12C870.805 23.4587 871.541 22.6907 872.16 21.816H891.52C889.835 25.6133 887.392 28.696 884.192 31.064C886.773 32.0453 890.165 32.8987 894.368 33.624V37.592C888.672 36.76 883.883 35.416 880 33.56C879.211 33.9653 878.325 34.3493 877.344 34.712H879.776C879.776 35.9707 879.669 37.1227 879.456 38.168H892.896L892.032 50.2H883.552V46.104H888.032L888.32 42.168H878.112C877.067 44.1947 875.552 45.912 873.568 47.32C871.605 48.7493 869.173 49.816 866.272 50.52V46.168C869.536 45.2293 871.893 43.896 873.344 42.168H867.072V38.168H875.328C875.541 37.208 875.659 36.248 875.68 35.288C872.779 36.248 869.429 37.016 865.632 37.592V33.624ZM875.808 25.656C877.045 26.9573 878.443 28.0773 880 29.016C881.515 28.0987 882.912 26.9787 884.192 25.656H875.808ZM910.368 21.944H925.536V40.12H921.728V25.976H914.176V40.12H910.368V21.944ZM897.248 45.016C899.275 43.224 900.576 40.7067 901.152 37.464H897.6V33.56H901.376V28.344H897.92V24.44H901.376V21.08H905.472V24.44H908.928V28.344H905.472V33.56H909.216V37.464H906.016C906.592 40.728 907.883 43.2453 909.888 45.016V50.52C906.944 48.536 904.832 45.6133 903.552 41.752C902.315 45.592 900.213 48.5147 897.248 50.52V45.016ZM910.464 50.2C912.427 47.9387 913.856 45.6133 914.752 43.224C915.648 40.8133 916.096 38.1147 916.096 35.128V27.48H919.808V35.128C919.808 37.3253 919.595 39.4693 919.168 41.56H922.208V46.232H926.72V50.2H918.496V44.12C917.835 46.2533 916.885 48.28 915.648 50.2H910.464ZM947.136 50.744C943.104 49.7413 939.968 48.0133 937.728 45.56C936.597 46.52 935.285 47.384 933.792 48.152C932.299 48.92 930.816 49.528 929.344 49.976V45.208C930.389 44.8667 931.435 44.408 932.48 43.832C933.547 43.256 934.485 42.6053 935.296 41.88C934.08 39.2987 933.472 36.152 933.472 32.44H929.504V28.536H933.408V21.24H937.536V28.536H946.656V32.44H937.632C937.653 33.7413 937.717 34.8933 937.824 35.896C937.952 36.8987 938.155 37.8267 938.432 38.68C939.221 37.2293 939.819 35.6613 940.224 33.976H944.16C943.435 37.1973 942.293 40.0347 940.736 42.488C942.208 43.9173 944.341 45.0907 947.136 46.008V50.744ZM942.688 21.944L944.48 27.512H940.64L938.88 21.944H942.688ZM948.672 23.16H952.416V43.48H948.672V23.16ZM949.728 46.36H954.016V21.4H958.016V50.2H949.728V46.36ZM977.792 46.104H984.736L985.28 35.416H964.192L965.472 21.144H969.664L969.472 23.384H989.44V27.416H969.088L968.736 31.384H989.6L988.64 50.2H977.792V46.104ZM960.96 39.096H982.4V43.16H960.96V39.096ZM1009.12 50.168C1006.28 49.0373 1003.82 47.5333 1001.73 45.656C999.445 47.7253 996.661 49.3467 993.376 50.52V46.072C995.36 45.3253 997.109 44.2907 998.624 42.968C996.832 40.5787 995.68 37.72 995.168 34.392H999.072C999.541 36.6533 1000.43 38.6373 1001.73 40.344C1002.3 39.5547 1002.76 38.6907 1003.1 37.752C1003.47 36.792 1003.79 35.672 1004.06 34.392H1007.97C1007.69 36.1627 1007.31 37.752 1006.82 39.16C1006.33 40.5467 1005.66 41.816 1004.83 42.968C1006.35 44.2907 1008.1 45.3253 1010.08 46.072V48.664C1011.49 46.3387 1012.76 43.864 1013.89 41.24L1011.81 34.84H1008.13L1008.38 34.04L1002.94 31.96V27.992L1008.77 30.232V32.856C1009.37 30.8933 1009.86 28.9947 1010.24 27.16C1010.62 25.3253 1010.93 23.32 1011.17 21.144H1015.3C1015.15 22.552 1015.01 23.6827 1014.88 24.536H1023.07V28.696H1021.66C1021.26 32.6427 1020.36 36.6213 1018.98 40.632L1022.82 50.2H1018.66L1016.64 45.112C1015.83 47.2027 1015.02 48.8987 1014.21 50.2H1010.08V50.52L1009.22 50.2H1009.09L1009.12 50.168ZM993.696 23.32H999.776V20.76H1003.94V23.32H1009.44V27.352H993.696V23.32ZM993.728 30.232L1000.19 27.992V31.96L993.728 34.2V30.232ZM1016.16 36.408C1016.99 33.7413 1017.56 31.1707 1017.86 28.696H1014.14C1014.14 28.7813 1014.12 28.9093 1014.08 29.08L1016.16 36.408ZM1026.24 32.856H1040.19V50.2H1036.16V47.192H1030.27V50.2H1026.24V32.856ZM1025.6 27.48H1027.1L1030.56 21.272H1035.39L1031.94 27.48H1036.06L1035.01 23.832H1039.07L1041.22 31.32H1025.6V27.48ZM1036.16 43.768V41.912H1030.27V43.768H1036.16ZM1036.16 38.488V36.536H1030.27V38.488H1036.16ZM1042.3 35.8H1046.43V39.576C1048.91 38.872 1051.46 37.8693 1054.08 36.568V40.792C1051.69 42.008 1049.14 42.936 1046.43 43.576V45.816H1054.4V49.944H1042.3V35.8ZM1042.3 21.4H1046.43V25.304C1048.84 24.6427 1051.39 23.6827 1054.08 22.424V26.52C1051.73 27.7147 1049.18 28.6213 1046.43 29.24V30.904H1054.4V34.936H1042.3V21.4ZM1075.07 41.24H1067.65V37.304H1075.2V25.816H1068.29V21.944H1086.08V25.816H1079.17V37.304H1086.72V41.24H1079.3V50.2H1075.07V41.24ZM1057.12 30.52H1065.47V43.736L1069.06 42.328V47.096L1061.18 50.2V34.776H1057.12V30.52ZM1063.68 21.4L1065.89 28.344H1061.54L1059.33 21.4H1063.68ZM1071.94 27.832L1073.66 35.608H1070.21L1068.48 27.832H1071.94ZM1082.43 27.832H1085.89L1084.16 35.608H1080.7L1082.43 27.832ZM1117.38 49.816H1099.65V35H1106.43V29.496H1098.18V25.4H1106.43V21.4H1110.59V25.4H1118.53V29.496H1110.59V35H1117.38V49.816ZM1089.28 32.216C1091.69 29.336 1093.38 25.7307 1094.34 21.4H1098.4C1097.95 24.024 1097.26 26.4987 1096.32 28.824V50.2H1092.22V35.64C1091.33 36.7067 1090.35 37.688 1089.28 38.584V32.216ZM1113.28 45.784V39.032H1103.71V45.784H1113.28ZM1121.98 49.304C1123.52 46.5093 1124.66 43.7573 1125.41 41.048H1129.86C1129.13 43.864 1128.12 46.616 1126.82 49.304H1121.98ZM1122.18 35.896H1129.76L1131.52 34.072L1123.94 31.896V27.192L1127.55 28.312L1130.18 25.56C1126.98 25.6027 1124.59 25.624 1123.01 25.624V21.656C1131.41 21.656 1140.07 21.3787 1148.99 20.824V24.76C1145.47 24.9947 1141.23 25.208 1136.26 25.4L1132.03 29.72L1134.91 30.616L1138.37 27.096H1144.8L1136.19 35.896H1144.7L1143.14 31.512H1147.55L1150.5 39.8H1138.08V50.2H1133.92V39.8H1122.18V35.896ZM1146.59 41.048C1147.34 43.7573 1148.48 46.5093 1150.02 49.304H1145.18C1143.88 46.616 1142.87 43.864 1142.14 41.048H1146.59ZM1156.83 34.776L1153.09 32.856L1157.89 21.4H1162.11L1158.21 30.584L1159.33 31.128L1160.42 28.44H1164.26L1160 38.648H1164V42.648H1153.54L1156.83 34.776ZM1153.6 45.88L1164 44.504V48.632L1153.6 50.008V45.88ZM1163.39 50.2C1164.74 48.536 1165.67 46.904 1166.21 45.304C1166.74 43.6827 1167.01 41.8267 1167.01 39.736V37.688H1171.1V39.736C1171.1 41.72 1170.9 43.544 1170.5 45.208C1170.09 46.8507 1169.43 48.5147 1168.51 50.2H1163.39ZM1164.1 22.744H1171.14V21.08H1175.3V22.744H1182.34V26.776H1173.47L1170.72 32.28H1176.54L1175.1 28.536H1179.26L1182.24 36.312H1164.42V32.28H1166.21L1168.96 26.776H1164.1V22.744ZM1175.17 37.688H1179.26V46.104H1183.04V50.2H1175.17V37.688Z" fill="white"/>
<path d="M646 28.3438L648.278 26L658 36L648.278 46L646 43.6562L653.443 36L646 28.3438Z" fill="#1FC6FF"/>
<path d="M686 28.3438L688.278 26L698 36L688.278 46L686 43.6562L693.443 36L686 28.3438Z" fill="#1FC6FF"/>
<path d="M666 28.3438L668.278 26L678 36L668.278 46L666 43.6562L673.443 36L666 28.3438Z" fill="#1FC6FF" fill-opacity="0.32"/>
<path d="M706 28.3438L708.278 26L718 36L708.278 46L706 43.6562L713.443 36L706 28.3438Z" fill="#1FC6FF" fill-opacity="0.32"/>
<path d="M1274 28.3438L1271.72 26L1262 36L1271.72 46L1274 43.6562L1266.56 36L1274 28.3438Z" fill="#1FC6FF"/>
<path d="M1234 28.3438L1231.72 26L1222 36L1231.72 46L1234 43.6562L1226.56 36L1234 28.3438Z" fill="#1FC6FF"/>
<path d="M1254 28.3438L1251.72 26L1242 36L1251.72 46L1254 43.6562L1246.56 36L1254 28.3438Z" fill="#1FC6FF" fill-opacity="0.32"/>
<path d="M1214 28.3438L1211.72 26L1202 36L1211.72 46L1214 43.6562L1206.56 36L1214 28.3438Z" fill="#1FC6FF" fill-opacity="0.32"/>
<defs>
<linearGradient id="paint0_linear_28_1669" x1="395" y1="42.9986" x2="1525" y2="35.9987" gradientUnits="userSpaceOnUse">
<stop stop-color="#1FC6FF" stop-opacity="0"/>
<stop offset="0.508424" stop-color="#1FC6FF"/>
<stop offset="1" stop-color="#1FC6FF" stop-opacity="0"/>
</linearGradient>
<linearGradient id="paint1_linear_28_1669" x1="959" y1="5" x2="959" y2="68" gradientUnits="userSpaceOnUse">
<stop stop-color="#1FC6FF" stop-opacity="0"/>
<stop offset="1" stop-color="#1FC6FF"/>
</linearGradient>
</defs>
</svg>
