<svg width="20" height="1001" viewBox="0 0 20 1001" fill="none" xmlns="http://www.w3.org/2000/svg">
<mask id="mask0_28_1647" style="mask-type:alpha" maskUnits="userSpaceOnUse" x="0" y="0" width="20" height="1001">
<path fill-rule="evenodd" clip-rule="evenodd" d="M20 0H0V1001H20V0Z" fill="url(#paint0_linear_28_1647)"/>
</mask>
<g mask="url(#mask0_28_1647)">
<mask id="path-2-inside-1_28_1647" fill="white">
<path d="M0 2V400.415C0 404.507 3.52669 408.474 10 411.669C16.4733 414.864 20 418.831 20 422.923V548.489C20 552.58 16.4733 556.547 10 559.742C3.52669 562.937 0 566.904 0 570.996V1001"/>
</mask>
<path d="M0 2V400.415C0 404.507 3.52669 408.474 10 411.669C16.4733 414.864 20 418.831 20 422.923V548.489C20 552.58 16.4733 556.547 10 559.742C3.52669 562.937 0 566.904 0 570.996V1001" fill="#041A21"/>
<path d="M0 2H0.5V400.415H0H-0.5V2H0ZM0 400.415H0.5C0.5 404.202 3.78288 408.043 10.2213 411.221L10 411.669L9.7787 412.117C3.27049 408.905 -0.5 404.812 -0.5 400.415H0ZM10 411.669L10.2213 411.221C16.7295 414.433 20.5 418.526 20.5 422.923H20H19.5C19.5 419.136 16.2171 415.295 9.7787 412.117L10 411.669ZM20 422.923H20.5V548.489H20H19.5V422.923H20ZM20 548.489H20.5C20.5 552.885 16.7295 556.978 10.2213 560.19L10 559.742L9.7787 559.294C16.2171 556.116 19.5 552.275 19.5 548.489H20ZM10 559.742L10.2213 560.19C3.78288 563.368 0.5 567.209 0.5 570.996H0H-0.5C-0.5 566.599 3.27049 562.506 9.7787 559.294L10 559.742ZM0 570.996H0.5V1001H0H-0.5V570.996H0Z" fill="url(#paint1_linear_28_1647)" mask="url(#path-2-inside-1_28_1647)"/>
<path d="M0 2H0.5V400.415H0H-0.5V2H0ZM0 400.415H0.5C0.5 404.202 3.78288 408.043 10.2213 411.221L10 411.669L9.7787 412.117C3.27049 408.905 -0.5 404.812 -0.5 400.415H0ZM10 411.669L10.2213 411.221C16.7295 414.433 20.5 418.526 20.5 422.923H20H19.5C19.5 419.136 16.2171 415.295 9.7787 412.117L10 411.669ZM20 422.923H20.5V548.489H20H19.5V422.923H20ZM20 548.489H20.5C20.5 552.885 16.7295 556.978 10.2213 560.19L10 559.742L9.7787 559.294C16.2171 556.116 19.5 552.275 19.5 548.489H20ZM10 559.742L10.2213 560.19C3.78288 563.368 0.5 567.209 0.5 570.996H0H-0.5C-0.5 566.599 3.27049 562.506 9.7787 559.294L10 559.742ZM0 570.996H0.5V1001H0H-0.5V570.996H0Z" fill="#136480" mask="url(#path-2-inside-1_28_1647)"/>
<path fill-rule="evenodd" clip-rule="evenodd" d="M2 522L2 526H5V522H2Z" fill="#1FC6FF" fill-opacity="0.8"/>
<path fill-rule="evenodd" clip-rule="evenodd" d="M2 529L2 533H5V529H2Z" fill="#1FC6FF" fill-opacity="0.6"/>
<path fill-rule="evenodd" clip-rule="evenodd" d="M2 536L2 540H5V536H2Z" fill="#1FC6FF" fill-opacity="0.4"/>
<path fill-rule="evenodd" clip-rule="evenodd" d="M2 543L2 547H5V543H2Z" fill="#1FC6FF" fill-opacity="0.2"/>
<path d="M4 477.759L14.2071 489L4 500.241L5.10459 501L16 489L5.10459 477L4 477.759Z" fill="url(#paint2_linear_28_1647)"/>
<path d="M11.5864 489.001L4.55218 480.744V497.257L11.5864 489.001Z" fill="url(#paint3_linear_28_1647)"/>
</g>
<rect x="19" y="471" width="1" height="31" fill="white"/>
<defs>
<linearGradient id="paint0_linear_28_1647" x1="20" y1="0" x2="20" y2="1001" gradientUnits="userSpaceOnUse">
<stop stop-color="#D8D8D8" stop-opacity="0.01"/>
<stop offset="0.245889" stop-color="#D8D8D8"/>
<stop offset="0.645416" stop-color="#D8D8D8"/>
<stop offset="1" stop-color="#D8D8D8" stop-opacity="0.01"/>
</linearGradient>
<linearGradient id="paint1_linear_28_1647" x1="14.0514" y1="301.471" x2="14.0514" y2="706.205" gradientUnits="userSpaceOnUse">
<stop stop-color="white" stop-opacity="0.01"/>
<stop offset="0.490372" stop-color="white" stop-opacity="0.6"/>
<stop offset="1" stop-color="white" stop-opacity="0.01"/>
</linearGradient>
<linearGradient id="paint2_linear_28_1647" x1="-6.5" y1="489" x2="15.6886" y2="490.62" gradientUnits="userSpaceOnUse">
<stop stop-color="white" stop-opacity="0"/>
<stop offset="1" stop-color="white"/>
</linearGradient>
<linearGradient id="paint3_linear_28_1647" x1="0.5" y1="489" x2="7.99989" y2="488.971" gradientUnits="userSpaceOnUse">
<stop stop-color="white" stop-opacity="0.4"/>
<stop offset="1" stop-color="white"/>
</linearGradient>
</defs>
</svg>
