<svg width="16" height="16" viewBox="0 0 16 16" fill="none" xmlns="http://www.w3.org/2000/svg">
<g clip-path="url(#clip0_36_1720)">
<path d="M15.2692 0.349763C15.2692 -0.138108 14.806 -0.017039 14.6627 0.128004C14.3857 0.427679 13.6573 1.03662 12.1004 1.35787C11.8653 1.41106 11.6249 1.4372 11.384 1.43579C10.6317 1.43579 10.0025 1.19125 9.28491 0.903563C8.45747 0.582311 7.51899 0.216707 6.23783 0.216707C6.12798 0.216707 6.01694 0.216707 5.90709 0.227496C4.51609 0.293424 3.31254 0.903563 2.43972 1.35787C2.18421 1.48613 1.92631 1.612 1.66721 1.73426L1.5896 1.54607L1.57885 1.53528C1.54993 1.46673 1.50783 1.40459 1.45494 1.3524C1.40206 1.30022 1.33943 1.25903 1.27066 1.23119C1.20189 1.20336 1.12833 1.18941 1.05418 1.19017C0.980034 1.19093 0.906766 1.20637 0.838573 1.2356C0.770654 1.26476 0.709306 1.30739 0.658215 1.36095C0.607124 1.41451 0.567345 1.47788 0.541267 1.54726C0.486244 1.68581 0.486244 1.84026 0.541267 1.9788L6.29395 15.656C6.38231 15.8669 6.58051 16 6.81215 16C6.90538 16.0002 6.9972 15.9771 7.07937 15.9328C7.16154 15.8886 7.23149 15.8246 7.28296 15.7466C7.33444 15.6685 7.36582 15.5789 7.37429 15.4857C7.38277 15.3924 7.36808 15.2986 7.33153 15.2125L5.36621 10.5351C5.7908 9.82971 6.47133 9.31708 7.26467 9.10507C7.60735 9.01757 7.96077 8.96123 8.34643 8.96123C9.08671 8.96123 9.8043 9.12785 10.5673 9.30526C11.2622 9.46109 11.9678 9.62651 12.6639 9.62651C13.7123 9.62651 14.5182 9.2609 15.2143 8.48534C15.2424 8.42971 15.2609 8.36974 15.2692 8.30794V0.348565V0.349763Z" fill="#1FC6FF"/>
</g>
<defs>
<clipPath id="clip0_36_1720">
<rect width="16" height="16" fill="white"/>
</clipPath>
</defs>
</svg>
