<svg width="400" height="910" viewBox="0 0 400 910" fill="none" xmlns="http://www.w3.org/2000/svg">
<rect width="400" height="910" fill="#041A21"/>
<rect width="1" height="24" fill="#1FC7FF" fill-opacity="0.24"/>
<rect y="58" width="1" height="24" fill="#1FC7FF" fill-opacity="0.24"/>
<rect y="102" width="1" height="808" fill="#1FC7FF" fill-opacity="0.24"/>
<rect y="32" width="1" height="24" fill="#1FC7FF" fill-opacity="0.24"/>
<rect y="26" width="1" height="4" fill="#1FC7FF" fill-opacity="0.5"/>
<rect y="84" width="1" height="4" fill="#1FC7FF" fill-opacity="0.5"/>
<rect y="90" width="1" height="4" fill="#1FC7FF" fill-opacity="0.5"/>
<rect y="96" width="1" height="4" fill="#1FC7FF" fill-opacity="0.5"/>
<rect width="1" height="599" transform="matrix(1 0 0 -1 399 910)" fill="#1FC7FF" fill-opacity="0.24"/>
<rect width="1" height="24" transform="matrix(1 0 0 -1 399 317)" fill="#1FC7FF" fill-opacity="0.24"/>
<rect width="1" height="273" transform="matrix(1 0 0 -1 399 273)" fill="#1FC7FF" fill-opacity="0.24"/>
<rect width="1" height="24" transform="matrix(1 0 0 -1 399 343)" fill="#1FC7FF" fill-opacity="0.24"/>
<rect width="1" height="4" transform="matrix(1 0 0 -1 399 349)" fill="#1FC7FF" fill-opacity="0.5"/>
<rect width="1" height="4" transform="matrix(1 0 0 -1 399 291)" fill="#1FC7FF" fill-opacity="0.5"/>
<rect width="1" height="4" transform="matrix(1 0 0 -1 399 285)" fill="#1FC7FF" fill-opacity="0.5"/>
<rect width="1" height="4" transform="matrix(1 0 0 -1 399 279)" fill="#1FC7FF" fill-opacity="0.5"/>
<rect x="1" y="910" width="1" height="24" transform="rotate(-90 1 910)" fill="#1FC7FF" fill-opacity="0.24"/>
<rect x="59" y="910" width="1" height="24" transform="rotate(-90 59 910)" fill="#1FC7FF" fill-opacity="0.24"/>
<rect x="33" y="910" width="1" height="24" transform="rotate(-90 33 910)" fill="#1FC7FF" fill-opacity="0.24"/>
<rect x="27" y="910" width="1" height="4" transform="rotate(-90 27 910)" fill="#1FC7FF" fill-opacity="0.72"/>
<rect x="85" y="910" width="1" height="4" transform="rotate(-90 85 910)" fill="#1FC7FF" fill-opacity="0.72"/>
<rect x="91" y="910" width="1" height="4" transform="rotate(-90 91 910)" fill="#1FC7FF" fill-opacity="0.72"/>
<rect x="97" y="910" width="1" height="4" transform="rotate(-90 97 910)" fill="#1FC7FF" fill-opacity="0.72"/>
<rect width="1" height="24" transform="matrix(0 -1 -1 0 371 910)" fill="#1FC7FF" fill-opacity="0.24"/>
<rect x="103" y="910" width="1" height="224" transform="rotate(-90 103 910)" fill="#1FC7FF" fill-opacity="0.24"/>
<rect width="1" height="26" transform="matrix(0 -1 -1 0 399 910)" fill="#1FC7FF" fill-opacity="0.24"/>
<rect width="1" height="4" transform="matrix(0 -1 -1 0 345 910)" fill="#1FC7FF" fill-opacity="0.72"/>
<rect width="1" height="4" transform="matrix(0 -1 -1 0 339 910)" fill="#1FC7FF" fill-opacity="0.72"/>
<rect width="1" height="4" transform="matrix(0 -1 -1 0 333 910)" fill="#1FC7FF" fill-opacity="0.72"/>
</svg>
