<svg width="48" height="48" viewBox="0 0 48 48" fill="none" xmlns="http://www.w3.org/2000/svg">
<path d="M41.793 0.5L47.5 6.20703V41.793L41.793 47.5H6.20703L0.5 41.793V6.20703L6.20703 0.5H41.793Z" fill="url(#paint0_linear_36_2166)" fill-opacity="0.4" stroke="#ADEAFF"/>
<path d="M29.7778 10L37 17V36.6112C36.9996 36.9797 36.8483 37.3329 36.5794 37.5933C36.3104 37.8537 35.9458 38 35.5657 38H12.4343C12.055 37.9974 11.6919 37.8503 11.4235 37.5905C11.1552 37.3306 11.003 36.9789 11 36.6112V11.3888C11 10.6216 11.6428 10 12.4343 10H29.7778ZM22.5556 22.6H18.2222V25.4H22.5556V29.6H25.4444V25.4H29.7778V22.6H25.4444V18.4H22.5556V22.6Z" fill="#ADEAFF"/>
<path d="M48 0H44.25L48 3.75V0Z" fill="#ADEAFF"/>
<defs>
<linearGradient id="paint0_linear_36_2166" x1="24" y1="0" x2="24" y2="48" gradientUnits="userSpaceOnUse">
<stop stop-color="#1FC6FF"/>
<stop offset="1" stop-color="#1FC6FF" stop-opacity="0.6"/>
</linearGradient>
</defs>
</svg>
