<svg width="48" height="48" viewBox="0 0 48 48" fill="none" xmlns="http://www.w3.org/2000/svg">
<path d="M41.793 0.5L47.5 6.20703V41.793L41.793 47.5H6.20703L0.5 41.793V6.20703L6.20703 0.5H41.793Z" fill="url(#paint0_linear_36_2176)" fill-opacity="0.4" stroke="#ADEAFF"/>
<path d="M32.7517 20.8351C32.7517 20.8378 32.7544 20.8405 32.7544 20.846V20.8269C32.7517 20.8269 32.7517 20.8296 32.7517 20.8351Z" fill="black"/>
<path d="M35.2377 23.5955H15.0459C14.3157 23.5955 13.6675 24.067 13.4433 24.7591L11.682 30.1656V15.5948H20.0973C20.0973 17.4479 21.6015 18.9466 23.4585 18.9466H31.8711V21.4673C31.8765 21.9251 32.2485 22.2957 32.7107 22.2957C33.1756 22.2957 33.5503 21.9196 33.5503 21.4591C33.5503 21.4564 33.5476 21.4537 33.5476 21.4482H33.553V18.9466C33.553 18.0201 32.8009 17.2707 31.8711 17.268H23.4585C22.5286 17.268 21.7765 16.5186 21.7765 15.5921C21.7765 15.1479 21.5988 14.7228 21.2842 14.4094C20.9697 14.0961 20.5403 13.9189 20.0973 13.9189H11.682C10.7548 13.9189 10.0027 14.6683 10 15.5921V35.3268C10.0027 36.2533 10.7548 37 11.6847 37H31.8711C32.604 37 33.2522 36.5313 33.4765 35.8364L36.9197 25.2714C36.917 24.3476 36.1676 23.5983 35.2377 23.5955ZM36.8978 14.7637C35.8531 12.7472 32.5521 8.53698 24.3993 12.9243C24.3993 12.9243 33.3753 10.7088 34.461 15.6439L32.9732 15.6793L36.649 17.982L38 13.8726L36.8978 14.7637Z" fill="#ADEAFF"/>
<path d="M48 0H44.25L48 3.75V0Z" fill="#ADEAFF"/>
<defs>
<linearGradient id="paint0_linear_36_2176" x1="24" y1="0" x2="24" y2="48" gradientUnits="userSpaceOnUse">
<stop stop-color="#1FC6FF"/>
<stop offset="1" stop-color="#1FC6FF" stop-opacity="0.6"/>
</linearGradient>
</defs>
</svg>
