<svg width="48" height="48" viewBox="0 0 48 48" fill="none" xmlns="http://www.w3.org/2000/svg">
<path d="M41.793 0.5L47.5 6.20703V41.793L41.793 47.5H6.20703L0.5 41.793V6.20703L6.20703 0.5H41.793Z" fill="url(#paint0_linear_36_2186)" fill-opacity="0.4" stroke="#ADEAFF"/>
<path d="M31.4833 10.4037V18.5261H16.5167V10.1327H13.6263C11.6333 10.1327 10 11.7583 10 13.7418V34.3909C10 36.3744 11.6333 38 13.6263 38H14.2V23.2701H33.8V38H34.3737C36.3667 38 38 36.3744 38 34.3909V16.6351L31.4833 10.4037Z" fill="#ADEAFF"/>
<path d="M25.2333 10H29.1333V15.9052H25.2333V10ZM30.994 25.8741L17.0273 25.7414H17.0163C16.7248 25.747 16.447 25.8659 16.2423 26.0726C16.0377 26.2793 15.9223 26.5575 15.921 26.8477C15.9196 27.138 16.0324 27.4172 16.2351 27.6258C16.4378 27.8344 16.7145 27.9558 17.006 27.9641L30.9727 28.0968H30.9837C31.2752 28.0912 31.553 27.9723 31.7577 27.7656C31.9623 27.5589 32.0777 27.2807 32.079 26.9905C32.0804 26.7002 31.9676 26.421 31.7649 26.2124C31.5622 26.0038 31.2855 25.8824 30.994 25.8741ZM30.994 29.6146L17.0273 29.4819H17.0163C16.7248 29.4875 16.447 29.6064 16.2423 29.8131C16.0377 30.0198 15.9223 30.298 15.921 30.5883C15.9196 30.8785 16.0324 31.1577 16.2351 31.3663C16.4378 31.5749 16.7145 31.6963 17.006 31.7046L30.9727 31.8373H30.9837C31.2752 31.8317 31.553 31.7129 31.7577 31.5061C31.9623 31.2994 32.0777 31.0212 32.079 30.731C32.0804 30.4408 31.9676 30.1615 31.7649 29.9529C31.5622 29.7443 31.2855 29.6229 30.994 29.6146ZM30.994 33.3554L17.0273 33.2227H17.0163C16.7248 33.2284 16.447 33.3472 16.2423 33.554C16.0377 33.7607 15.9223 34.0389 15.921 34.3291C15.9196 34.6193 16.0324 34.8986 16.2351 35.1072C16.4378 35.3158 16.7145 35.4372 17.006 35.4455L30.9727 35.5782H30.9837C31.2752 35.5726 31.553 35.4537 31.7577 35.247C31.9623 35.0403 32.0777 34.7621 32.079 34.4718C32.0804 34.1816 31.9676 33.9024 31.7649 33.6938C31.5622 33.4852 31.2855 33.3638 30.994 33.3554Z" fill="#ADEAFF"/>
<path d="M48 0H44.25L48 3.75V0Z" fill="#ADEAFF"/>
<defs>
<linearGradient id="paint0_linear_36_2186" x1="24" y1="0" x2="24" y2="48" gradientUnits="userSpaceOnUse">
<stop stop-color="#1FC6FF"/>
<stop offset="1" stop-color="#1FC6FF" stop-opacity="0.6"/>
</linearGradient>
</defs>
</svg>
