<svg width="48" height="48" viewBox="0 0 48 48" fill="none" xmlns="http://www.w3.org/2000/svg">
<path d="M41.793 0.5L47.5 6.20703V41.793L41.793 47.5H6.20703L0.5 41.793V6.20703L6.20703 0.5H41.793Z" fill="url(#paint0_linear_36_2196)" fill-opacity="0.4" stroke="#ADEAFF"/>
<path d="M18.0089 10V19.0411C18.0089 19.7894 18.7259 20.3936 19.6089 20.3936H32.4019C33.2848 20.3936 34.0018 19.7862 34.0018 19.0411V10C35.0632 10 36.0776 10.4226 36.829 11.1708C37.5773 11.9191 38 12.9365 38 13.9978V29.9888C38 31.0501 37.5773 32.0644 36.829 32.8157C36.0807 33.564 35.0632 33.9866 34.0018 33.9866H18.0089C16.9476 33.9866 15.9331 33.564 15.1817 32.8157C14.4334 32.0675 14.0107 31.0501 14.0107 29.9888V13.9978C14.0107 12.9365 14.4334 11.9222 15.1817 11.1708C15.9331 10.4226 16.9507 10 18.0089 10ZM19.6089 10H32.4019V18.7938H19.6089V10ZM30.0036 13.1995C29.7907 13.1995 29.5872 13.284 29.4369 13.4343C29.2866 13.5845 29.2021 13.788 29.2021 14.0009V16.3989C29.2021 16.8403 29.559 17.1972 30.0004 17.1972C30.4419 17.1972 30.7988 16.8403 30.7988 16.3989V14.0009C30.7988 13.788 30.7143 13.5845 30.564 13.4343C30.42 13.2809 30.2165 13.1995 30.0036 13.1995Z" fill="#ADEAFF"/>
<path d="M12.3733 13.6628C11.9443 13.8631 11.5467 14.1386 11.2054 14.483C10.4321 15.2563 10 16.305 10 17.3976V33.8801C10 34.9727 10.4352 36.0215 11.2054 36.7947C11.9788 37.568 13.0276 38 14.1203 38H30.6047C31.6974 38 32.7463 37.5648 33.5196 36.7947C33.8546 36.4597 34.127 36.0716 34.3274 35.6489H12.3733V13.6628Z" fill="#ADEAFF"/>
<path d="M48 0H44.25L48 3.75V0Z" fill="#ADEAFF"/>
<defs>
<linearGradient id="paint0_linear_36_2196" x1="24" y1="0" x2="24" y2="48" gradientUnits="userSpaceOnUse">
<stop stop-color="#1FC6FF"/>
<stop offset="1" stop-color="#1FC6FF" stop-opacity="0.6"/>
</linearGradient>
</defs>
</svg>
