<svg width="48" height="48" viewBox="0 0 48 48" fill="none" xmlns="http://www.w3.org/2000/svg">
<path d="M41.793 0.5L47.5 6.20703V41.793L41.793 47.5H6.20703L0.5 41.793V6.20703L6.20703 0.5H41.793Z" fill="url(#paint0_linear_36_2206)" fill-opacity="0.4" stroke="#ADEAFF"/>
<path d="M19.9385 19.7289H16.1814C16.0835 19.7289 15.982 19.7045 15.8981 19.645C15.2544 19.1867 15.2614 18.4451 15.6742 18.0253L23.2864 10.2978C23.6747 9.90602 24.3078 9.89903 24.6996 10.2873L24.7101 10.2978L32.3258 18.0288C32.7141 18.4241 32.7071 19.0573 32.3118 19.4421C32.1264 19.624 31.8746 19.7289 31.6157 19.7289H28.0615V27.2745C28.0615 27.5509 27.8376 27.7748 27.5612 27.7748H20.4388C20.1624 27.7748 19.9385 27.5509 19.9385 27.2745V19.7289ZM15.9995 28.3485V31.4094C15.9995 31.6858 16.2234 31.9096 16.4997 31.9096H31.5002C31.7766 31.9096 32.0005 31.6858 32.0005 31.4094V28.3485C32.0005 28.0721 32.2244 27.8482 32.5007 27.8482H37.4998C37.7761 27.8482 38 28.0721 38 28.3485V37.4998C38 37.7761 37.7761 38 37.4998 38H10.5002C10.2239 38 10 37.7761 10 37.4998V28.3485C10 28.0721 10.2239 27.8482 10.5002 27.8482H15.4992C15.7756 27.8482 15.9995 28.0721 15.9995 28.3485Z" fill="#ADEAFF"/>
<path d="M48 0H44.25L48 3.75V0Z" fill="#ADEAFF"/>
<defs>
<linearGradient id="paint0_linear_36_2206" x1="24" y1="0" x2="24" y2="48" gradientUnits="userSpaceOnUse">
<stop stop-color="#1FC6FF"/>
<stop offset="1" stop-color="#1FC6FF" stop-opacity="0.6"/>
</linearGradient>
</defs>
</svg>
