<svg width="48" height="48" viewBox="0 0 48 48" fill="none" xmlns="http://www.w3.org/2000/svg">
<path d="M41.793 0.5L47.5 6.20703V41.793L41.793 47.5H6.20703L0.5 41.793V6.20703L6.20703 0.5H41.793Z" fill="url(#paint0_linear_36_2216)" fill-opacity="0.4" stroke="#ADEAFF"/>
<path d="M26.9293 35.7792V36.5994C26.9293 36.8283 26.736 37 26.5233 37H15.8308C15.5988 37 15.4248 36.8092 15.4248 36.5994V35.7792C15.4248 35.5503 15.6181 35.3786 15.8308 35.3786H18.7118V31.7161H8.83142C8.36737 31.7161 8 31.3536 8 30.8958V11.8202C8 11.3815 8.36737 11 8.83142 11H34.3347C34.7795 11 35.1662 11.3624 35.1662 11.8202V21.2627C34.6248 21.1101 34.0447 21.0337 33.4647 20.9956V12.9839C33.4647 12.774 33.2906 12.6023 33.0779 12.6023H10.1076C9.89486 12.6023 9.72085 12.774 9.72085 12.9839V29.7704C9.72085 29.9802 9.89486 30.1519 10.1076 30.1519H24.5897C24.6477 30.686 24.7444 31.2201 24.9184 31.7161H23.6423V35.3786H26.5233C26.7553 35.3786 26.9293 35.5503 26.9293 35.7792ZM31.6085 21.091V14.4908C31.6085 14.3001 31.4538 14.1284 31.2411 14.1284H11.9251C11.7317 14.1284 11.5577 14.281 11.5577 14.4908V28.2634C11.5577 28.4541 11.7124 28.6258 11.9251 28.6258H24.5897C24.8991 24.7916 27.8381 21.7205 31.6085 21.091ZM39.4586 28.2252C39.7486 28.2252 40 28.4732 40 28.7594V29.8276C40 30.1137 39.7486 30.3617 39.4586 30.3617H38.8012C38.5112 30.3617 38.1825 30.5906 38.1051 30.8767L37.7378 31.7733C37.6024 32.0404 37.6604 32.4219 37.8731 32.6126L38.3372 33.0704C38.5499 33.2803 38.5499 33.6236 38.3372 33.8335L37.5637 34.5965C37.3511 34.8063 37.003 34.8063 36.7903 34.5965L36.3263 34.1387C36.1136 33.9288 35.7269 33.8716 35.4755 34.0242L34.5668 34.3866C34.2767 34.482 34.0447 34.7872 34.0447 35.0734V35.7029C34.0447 35.989 33.7934 36.237 33.5033 36.237H32.4205C32.1305 36.237 31.8792 35.989 31.8792 35.7029V35.0734C31.8792 34.7872 31.6471 34.4629 31.3571 34.3866L30.4483 34.0242C30.1776 33.8907 29.8103 33.9479 29.5976 34.1387L29.1335 34.5965C28.9208 34.8063 28.5728 34.8063 28.3795 34.5965L27.606 33.8335C27.3934 33.6236 27.3934 33.2803 27.606 33.0704L28.0701 32.6126C28.2828 32.4028 28.3408 32.0213 28.2054 31.7733L27.8381 30.8767C27.7414 30.5906 27.432 30.3617 27.142 30.3617H26.4846C26.1946 30.3617 25.9432 30.1137 25.9432 29.8276V28.7594C25.9432 28.4732 26.1946 28.2252 26.4846 28.2252H27.1227C27.4127 28.2252 27.7414 27.9963 27.8187 27.7102L28.1861 26.8136C28.3214 26.5466 28.2634 26.1651 28.0508 25.9743L27.5867 25.5165C27.374 25.3067 27.374 24.9633 27.5867 24.7535L28.3601 24.0095C28.5728 23.7997 28.9208 23.7997 29.1142 24.0095L29.5782 24.4674C29.7909 24.6772 30.1776 24.7344 30.429 24.6009L31.3378 24.2384C31.6278 24.1431 31.8598 23.8379 31.8598 23.5517V22.9032C31.8598 22.617 32.1112 22.369 32.4012 22.369H33.484C33.774 22.369 34.0254 22.617 34.0254 22.9032V23.5517C34.0254 23.8379 34.2574 24.1621 34.5474 24.2384L35.4562 24.6009C35.7269 24.7344 36.1136 24.6772 36.3069 24.4674L36.771 24.0095C36.9837 23.7997 37.3317 23.7997 37.5444 24.0095L38.3178 24.7535C38.5305 24.9633 38.5305 25.3067 38.3178 25.5165L37.8538 25.9743C37.6411 26.1842 37.5831 26.5657 37.7184 26.8136L38.0858 27.7102C38.1825 27.9963 38.4918 28.2252 38.7819 28.2252H39.4586ZM35.6882 29.2935C35.6882 27.8247 34.4894 26.6229 32.9813 26.6229C31.4924 26.6229 30.2743 27.8056 30.2743 29.2935C30.2743 30.7623 31.4731 31.9641 32.9813 31.9641C34.4701 31.9641 35.6882 30.7623 35.6882 29.2935Z" fill="#ADEAFF"/>
<path d="M48 0H44.25L48 3.75V0Z" fill="#ADEAFF"/>
<defs>
<linearGradient id="paint0_linear_36_2216" x1="24" y1="0" x2="24" y2="48" gradientUnits="userSpaceOnUse">
<stop stop-color="#1FC6FF"/>
<stop offset="1" stop-color="#1FC6FF" stop-opacity="0.6"/>
</linearGradient>
</defs>
</svg>
