<svg width="48" height="48" viewBox="0 0 48 48" fill="none" xmlns="http://www.w3.org/2000/svg">
<path d="M41.793 0.5L47.5 6.20703V41.793L41.793 47.5H6.20703L0.5 41.793V6.20703L6.20703 0.5H41.793Z" fill="url(#paint0_linear_36_2226)" fill-opacity="0.4" stroke="#ADEAFF"/>
<path d="M37.9275 27.2309H32.5713V25.0764H36.8566C36.9972 25.0764 37.1365 25.0486 37.2664 24.9945C37.3963 24.9404 37.5144 24.8611 37.6138 24.7612C37.7133 24.6612 37.7922 24.5425 37.846 24.4119C37.8998 24.2813 37.9275 24.1414 37.9275 24C37.9275 23.8586 37.8998 23.7187 37.846 23.5881C37.7922 23.4575 37.7133 23.3388 37.6138 23.2388C37.5144 23.1389 37.3963 23.0596 37.2664 23.0055C37.1365 22.9514 36.9972 22.9236 36.8566 22.9236H25.0717V20.7691H29.357C29.9482 20.7691 30.4279 20.2869 30.4279 19.6927V11.0764C30.4279 10.791 30.3151 10.5172 30.1142 10.3153C29.9134 10.1134 29.641 10 29.357 10H17.5705C17.2865 10 17.0141 10.1134 16.8133 10.3153C16.6124 10.5172 16.4996 10.791 16.4996 11.0764V19.6927C16.4996 20.2869 16.9794 20.7691 17.5705 20.7691H22.9283V22.9236H11.1434C11.0028 22.9236 10.8635 22.9514 10.7336 23.0055C10.6037 23.0596 10.4856 23.1389 10.3861 23.2388C10.2867 23.3388 10.2078 23.4575 10.154 23.5881C10.1002 23.7187 10.0725 23.8586 10.0725 24C10.0725 24.1414 10.1002 24.2813 10.154 24.4119C10.2078 24.5425 10.2867 24.6612 10.3861 24.7612C10.4856 24.8611 10.6037 24.9404 10.7336 24.9945C10.8635 25.0486 11.0028 25.0764 11.1434 25.0764H15.4287V27.2309H10.0709C9.93029 27.2309 9.79103 27.2587 9.6611 27.3128C9.53117 27.3669 9.41311 27.4462 9.31367 27.5462C9.21422 27.6461 9.13534 27.7648 9.08152 27.8954C9.0277 28.026 9 28.166 9 28.3073V36.9236C9 37.5178 9.47975 38 10.0709 38H21.8574C22.4485 38 22.9283 37.5178 22.9283 36.9236V28.3073C22.9283 28.0218 22.8155 27.748 22.6146 27.5462C22.4138 27.3443 22.1414 27.2309 21.8574 27.2309H17.5705V25.0764H30.4279V27.2309H26.1411C25.8573 27.2313 25.5853 27.3449 25.3848 27.5467C25.1843 27.7485 25.0717 28.0221 25.0717 28.3073V36.9236C25.0717 37.5178 25.5515 38 26.1426 38H37.9275C38.5202 38 39 37.5178 39 36.9236V28.3073C39 28.1658 38.9722 28.0257 38.9183 27.895C38.8644 27.7643 38.7854 27.6456 38.6858 27.5456C38.5862 27.4456 38.4679 27.3664 38.3378 27.3124C38.2077 27.2584 38.0683 27.2307 37.9275 27.2309Z" fill="#ADEAFF"/>
<path d="M48 0H44.25L48 3.75V0Z" fill="#ADEAFF"/>
<defs>
<linearGradient id="paint0_linear_36_2226" x1="24" y1="0" x2="24" y2="48" gradientUnits="userSpaceOnUse">
<stop stop-color="#1FC6FF"/>
<stop offset="1" stop-color="#1FC6FF" stop-opacity="0.6"/>
</linearGradient>
</defs>
</svg>
