<svg width="48" height="48" viewBox="0 0 48 48" fill="none" xmlns="http://www.w3.org/2000/svg">
<path d="M41.793 0.5L47.5 6.20703V41.793L41.793 47.5H6.20703L0.5 41.793V6.20703L6.20703 0.5H41.793Z" fill="url(#paint0_linear_36_2236)" fill-opacity="0.4" stroke="#ADEAFF"/>
<path d="M31.3338 10.8505V15.56H35.4369L31.3338 10.8505Z" fill="#ADEAFF"/>
<path d="M30.7692 17.6638C30.335 17.6607 29.9195 17.4907 29.6126 17.1906C29.3057 16.8906 29.132 16.4846 29.1292 16.0604V10H13.7446C12.7692 10 12 10.9512 12 12.0527V35.9458C12 37.0984 12.7692 38 13.7954 38H34.2062C35.18 38 36 37.0488 36 35.9458V17.6638H30.7692ZM24.1538 22.4214C24.2499 22.3294 24.3642 22.2575 24.4896 22.21C24.6151 22.1625 24.7491 22.1405 24.8836 22.1453C25.018 22.1501 25.15 22.1815 25.2716 22.2378C25.3932 22.2941 25.5018 22.3739 25.5908 22.4725L26.7185 23.6236L30.0523 20.5686C30.1482 20.4767 30.2623 20.4049 30.3876 20.3574C30.5128 20.3099 30.6466 20.2879 30.7809 20.2925C30.9152 20.2971 31.047 20.3284 31.1686 20.3844C31.2901 20.4404 31.3986 20.5199 31.4877 20.6182C31.8985 21.0194 31.8462 21.67 31.4369 22.0217L27.5908 25.5275C27.47 25.6449 27.3256 25.7366 27.1667 25.7969C27.0079 25.8571 26.838 25.8846 26.6677 25.8776C26.3016 25.8741 25.9514 25.7306 25.6923 25.4779L24.0523 23.8249C23.6923 23.4237 23.7446 22.8226 24.1538 22.4214ZM16.8215 17.9644H20.6154C21.18 17.9644 21.6415 18.4152 21.6415 18.9652C21.6415 19.5167 21.18 19.9675 20.6154 19.9675H16.8215C16.5496 19.9667 16.2891 19.8608 16.0968 19.673C15.9046 19.4852 15.7962 19.2308 15.7954 18.9652C15.7954 18.4152 16.2062 17.9644 16.8215 17.9644ZM16.8215 23.574H20.6154C21.18 23.574 21.6415 24.0248 21.6415 24.5763C21.6415 25.1263 21.18 25.5771 20.6154 25.5771H16.8215C16.5499 25.5763 16.2896 25.4707 16.0974 25.2832C15.9052 25.0957 15.7966 24.8416 15.7954 24.5763C15.7954 24.0248 16.2062 23.574 16.8215 23.574ZM30.8723 31.1882H16.8215C16.5496 31.1874 16.2891 31.0816 16.0968 30.8938C15.9046 30.706 15.7962 30.4515 15.7954 30.1859C15.7954 29.6344 16.2569 29.1836 16.8215 29.1836H30.9231C31.4877 29.1836 31.9492 29.6344 31.9492 30.1859C31.9492 30.7374 31.4369 31.1882 30.8723 31.1882Z" fill="#ADEAFF"/>
<path d="M48 0H44.25L48 3.75V0Z" fill="#ADEAFF"/>
<defs>
<linearGradient id="paint0_linear_36_2236" x1="24" y1="0" x2="24" y2="48" gradientUnits="userSpaceOnUse">
<stop stop-color="#1FC6FF"/>
<stop offset="1" stop-color="#1FC6FF" stop-opacity="0.6"/>
</linearGradient>
</defs>
</svg>
