<svg width="48" height="48" viewBox="0 0 48 48" fill="none" xmlns="http://www.w3.org/2000/svg">
<path d="M41.793 0.5L47.5 6.20703V41.793L41.793 47.5H6.20703L0.5 41.793V6.20703L6.20703 0.5H41.793Z" fill="url(#paint0_linear_36_2246)" fill-opacity="0.4" stroke="#ADEAFF"/>
<path d="M27.8235 30.4371L11.1758 29.5378L13.1176 22.6747C13.1979 22.3366 13.492 22.0966 13.8362 22.0831L22.4158 21.8025C22.8068 22.9858 23.8062 25.0142 24.4746 26.1198C24.9058 26.8365 26.0254 28.2767 27.8235 30.4371ZM22.4158 38L9.84893 37.9256C9.58824 37.9256 9.3242 37.8614 9.19385 37.5977C9 37.4692 9 37.2021 9 36.9384L10.6979 30.9544L26.8777 32.043L22.4158 38ZM37.9472 33.0031L32.9405 32.5332C34.0033 31.2147 35.0428 29.8793 36.0588 28.5235C36.1223 28.2632 36.3195 28.1314 36.4499 27.8677L37.9472 33.0031ZM38.9332 36.8066C38.9332 36.8708 39 37.0027 39 37.0703C38.9933 37.5402 38.6156 37.9189 38.1511 37.9256H23.7025L28.2614 32.3236L38.2179 34.1797L38.9332 36.8066ZM31.0421 10C26.8242 10 23.5354 13.5025 23.5354 17.7522C23.5354 21.0012 25.5809 24.6931 27.3189 27.1915C28.6858 29.1321 30.1096 30.7549 30.7313 31.5054C30.7948 31.5697 30.9185 31.6914 31.0421 31.6914C31.1056 31.6914 31.2894 31.6271 31.3496 31.5054C32.0348 30.7549 33.3984 29.1287 34.762 27.1915C36.5 24.6931 38.5488 21.0012 38.5488 17.7522C38.609 13.5025 35.1965 10 31.0421 10ZM36.1558 22.5361H26.4599V13.7967H35.9853V14.7129H27.3656V21.6233H36.1558V22.5361ZM28.3416 16.0449L28.9031 15.3383L31.744 17.644C32.1116 17.3364 32.4425 17.0355 32.74 16.7447C33.0374 16.454 33.2948 16.1971 33.512 15.9672C33.7293 15.7406 33.8997 15.5581 34.0234 15.4228C34.1471 15.2876 34.2106 15.2166 34.2172 15.2099L34.8924 15.8015C34.8757 15.8252 34.8088 15.9063 34.6852 16.0449C34.5615 16.1835 34.3944 16.3627 34.1805 16.5825C33.9666 16.8022 33.7159 17.0558 33.4251 17.3432C33.1344 17.6305 32.8135 17.9213 32.4626 18.2256L34.9392 20.2304L34.3676 20.937L31.754 18.8138C31.266 19.1992 30.7447 19.5711 30.1898 19.9261C29.635 20.2811 29.0602 20.582 28.4652 20.8288L28.111 19.9971C28.629 19.774 29.1337 19.5069 29.625 19.2026C30.113 18.8983 30.5809 18.5704 31.0221 18.2222L28.3416 16.0449Z" fill="#ADEAFF"/>
<path d="M48 0H44.25L48 3.75V0Z" fill="#ADEAFF"/>
<defs>
<linearGradient id="paint0_linear_36_2246" x1="24" y1="0" x2="24" y2="48" gradientUnits="userSpaceOnUse">
<stop stop-color="#1FC6FF"/>
<stop offset="1" stop-color="#1FC6FF" stop-opacity="0.6"/>
</linearGradient>
</defs>
</svg>
