<svg width="16" height="16" viewBox="0 0 16 16" fill="none" xmlns="http://www.w3.org/2000/svg">
<path d="M0 8.26495C3.51077e-05 6.30001 0.759217 4.50544 2.00493 3.14328L2.28297 2.85475C2.5689 2.57236 2.8769 2.31101 3.20447 2.07354C3.45964 1.88855 3.72702 1.71807 4.00453 1.56314L4.1036 1.51314C4.60899 1.29374 5.21262 1.48045 5.49278 1.96C5.79152 2.47156 5.60902 3.12305 5.08582 3.41515C4.98472 3.4716 4.88573 3.53123 4.7886 3.59327L4.50416 3.78701C4.18645 4.01731 3.89405 4.27827 3.63167 4.5651C2.7275 5.55379 2.1818 6.8478 2.18177 8.26495C2.18177 11.3453 4.773 13.8666 7.99947 13.8668C11.2261 13.8668 13.8182 11.3455 13.8182 8.26495C13.8182 6.93643 13.3383 5.71663 12.5335 4.75468L12.3683 4.5651C12.1715 4.3499 11.9578 4.14918 11.7291 3.96513L11.4958 3.78701C11.3101 3.65238 11.1151 3.52794 10.9131 3.41515C10.3901 3.12296 10.2085 2.47146 10.5072 1.96C10.7873 1.48075 11.3901 1.29417 11.8953 1.51314L11.9955 1.56314L12.4035 1.80688C12.5367 1.89196 12.667 1.98111 12.7945 2.07354C13.2311 2.39008 13.634 2.74849 13.9951 3.14328C15.2407 4.50543 16 6.30003 16 8.26495C16 12.5497 12.4042 16.0001 7.99947 16.0001C3.59487 15.9999 0 12.5496 0 8.26495Z" fill="#0ACDFF"/>
<path d="M6.90869 8.1778V1.06662C6.90869 0.477544 7.3971 0 7.99958 0C8.60206 0 9.09046 0.477544 9.09046 1.06662V8.1778C9.09027 8.76672 8.60194 9.24442 7.99958 9.24442C7.39722 9.24442 6.90888 8.76672 6.90869 8.1778Z" fill="#0ACDFF"/>
</svg>
