<svg width="1920" height="11" viewBox="0 0 1920 11" fill="none" xmlns="http://www.w3.org/2000/svg">
<rect x="1551" y="1" width="1" height="224" transform="rotate(-90 1551 1)" fill="#1FC7FF" fill-opacity="0.24"/>
<rect x="848" y="1" width="1" height="224" transform="rotate(-90 848 1)" fill="#1FC7FF" fill-opacity="0.24"/>
<rect x="608" y="1" width="1" height="224" transform="rotate(-90 608 1)" fill="#1FC7FF" fill-opacity="0.24"/>
<rect x="149" y="1" width="1" height="415" transform="rotate(-90 149 1)" fill="#1FC7FF" fill-opacity="0.24"/>
<rect x="1088" y="1" width="1" height="463" transform="rotate(-90 1088 1)" fill="#1FC7FF" fill-opacity="0.24"/>
<rect x="1074" y="1" width="1" height="12" transform="rotate(-90 1074 1)" fill="#1FC7FF" fill-opacity="0.72"/>
<rect x="834" y="1" width="1" height="12" transform="rotate(-90 834 1)" fill="#1FC7FF" fill-opacity="0.72"/>
<rect x="594" y="1" width="1" height="12" transform="rotate(-90 594 1)" fill="#1FC7FF" fill-opacity="0.72"/>
<rect x="580" y="1" width="1" height="12" transform="rotate(-90 580 1)" fill="#1FC7FF" fill-opacity="0.72"/>
<rect x="566" y="1" width="1" height="12" transform="rotate(-90 566 1)" fill="#1FC7FF" fill-opacity="0.72"/>
<rect width="1" height="32" transform="matrix(0 -1 -1 0 1775 1)" fill="#1FC7FF"/>
<rect width="1" height="32" transform="matrix(0 -1 -1 0 181 1)" fill="#1FC7FF"/>
<rect x="24" y="1" width="1" height="123" transform="rotate(-90 24 1)" fill="#1FC7FF" fill-opacity="0.24"/>
<rect x="1775" y="1" width="1" height="121" transform="rotate(-90 1775 1)" fill="#1FC7FF" fill-opacity="0.24"/>
<path d="M24 4H40L44 0H24V4Z" fill="#1FC6FF"/>
<path d="M45 4H49L53 0H49L45 4Z" fill="#1FC6FF"/>
<path d="M54 4H58L62 0H58L54 4Z" fill="#1FC6FF"/>
<path d="M63 4H67L71 0H67L63 4Z" fill="#1FC6FF"/>
<path d="M1896 4H1880L1876 0H1896V4Z" fill="#1FC6FF"/>
<path d="M1875 4H1871L1867 0H1871L1875 4Z" fill="#1FC6FF"/>
<path d="M1866 4H1862L1858 0H1862L1866 4Z" fill="#1FC6FF"/>
<path d="M1857 4H1853L1849 0H1853L1857 4Z" fill="#1FC6FF"/>
</svg>
