<svg width="20" height="1001" viewBox="0 0 20 1001" fill="none" xmlns="http://www.w3.org/2000/svg">
<mask id="mask0_28_1625" style="mask-type:alpha" maskUnits="userSpaceOnUse" x="0" y="0" width="20" height="1001">
<path fill-rule="evenodd" clip-rule="evenodd" d="M0 0H20V1001H0V0Z" fill="url(#paint0_linear_28_1625)"/>
</mask>
<g mask="url(#mask0_28_1625)">
<mask id="path-2-inside-1_28_1625" fill="white">
<path d="M20 2V400.415C20 404.507 16.4733 408.474 10 411.669C3.52669 414.864 0 418.831 0 422.923V548.489C0 552.58 3.52669 556.547 10 559.742C16.4733 562.937 20 566.904 20 570.996V1001"/>
</mask>
<path d="M20 2V400.415C20 404.507 16.4733 408.474 10 411.669C3.52669 414.864 0 418.831 0 422.923V548.489C0 552.58 3.52669 556.547 10 559.742C16.4733 562.937 20 566.904 20 570.996V1001" fill="#041A21"/>
<path d="M20 2H19.5V400.415H20H20.5V2H20ZM20 400.415H19.5C19.5 404.202 16.2171 408.043 9.7787 411.221L10 411.669L10.2213 412.117C16.7295 408.905 20.5 404.812 20.5 400.415H20ZM10 411.669L9.7787 411.221C3.2705 414.433 -0.5 418.526 -0.5 422.923H0H0.5C0.5 419.136 3.78288 415.295 10.2213 412.117L10 411.669ZM0 422.923H-0.5V548.489H0H0.5V422.923H0ZM0 548.489H-0.5C-0.5 552.885 3.27049 556.978 9.7787 560.19L10 559.742L10.2213 559.294C3.78288 556.116 0.5 552.275 0.5 548.489H0ZM10 559.742L9.7787 560.19C16.2171 563.368 19.5 567.209 19.5 570.996H20H20.5C20.5 566.599 16.7295 562.506 10.2213 559.294L10 559.742ZM20 570.996H19.5V1001H20H20.5V570.996H20Z" fill="url(#paint1_linear_28_1625)" mask="url(#path-2-inside-1_28_1625)"/>
<path d="M20 2H19.5V400.415H20H20.5V2H20ZM20 400.415H19.5C19.5 404.202 16.2171 408.043 9.7787 411.221L10 411.669L10.2213 412.117C16.7295 408.905 20.5 404.812 20.5 400.415H20ZM10 411.669L9.7787 411.221C3.2705 414.433 -0.5 418.526 -0.5 422.923H0H0.5C0.5 419.136 3.78288 415.295 10.2213 412.117L10 411.669ZM0 422.923H-0.5V548.489H0H0.5V422.923H0ZM0 548.489H-0.5C-0.5 552.885 3.27049 556.978 9.7787 560.19L10 559.742L10.2213 559.294C3.78288 556.116 0.5 552.275 0.5 548.489H0ZM10 559.742L9.7787 560.19C16.2171 563.368 19.5 567.209 19.5 570.996H20H20.5C20.5 566.599 16.7295 562.506 10.2213 559.294L10 559.742ZM20 570.996H19.5V1001H20H20.5V570.996H20Z" fill="#136480" mask="url(#path-2-inside-1_28_1625)"/>
<path fill-rule="evenodd" clip-rule="evenodd" d="M18 522V526H15V522H18Z" fill="#1FC6FF" fill-opacity="0.8"/>
<path fill-rule="evenodd" clip-rule="evenodd" d="M18 529V533H15V529H18Z" fill="#1FC6FF" fill-opacity="0.6"/>
<path fill-rule="evenodd" clip-rule="evenodd" d="M18 536V540H15V536H18Z" fill="#1FC6FF" fill-opacity="0.4"/>
<path fill-rule="evenodd" clip-rule="evenodd" d="M18 543V547H15V543H18Z" fill="#1FC6FF" fill-opacity="0.2"/>
<path d="M16 477.759L5.79289 489L16 500.241L14.8954 501L4 489L14.8954 477L16 477.759Z" fill="url(#paint2_linear_28_1625)"/>
<path d="M8.41357 489.001L15.4478 480.744V497.257L8.41357 489.001Z" fill="url(#paint3_linear_28_1625)"/>
</g>
<rect width="1" height="31" transform="matrix(-1 0 0 1 1 471)" fill="#1FC6FF"/>
<defs>
<linearGradient id="paint0_linear_28_1625" x1="0" y1="0" x2="0" y2="1001" gradientUnits="userSpaceOnUse">
<stop stop-color="#D8D8D8" stop-opacity="0.01"/>
<stop offset="0.245889" stop-color="#D8D8D8"/>
<stop offset="0.645416" stop-color="#D8D8D8"/>
<stop offset="1" stop-color="#D8D8D8" stop-opacity="0.01"/>
</linearGradient>
<linearGradient id="paint1_linear_28_1625" x1="5.94862" y1="301.471" x2="5.94862" y2="706.205" gradientUnits="userSpaceOnUse">
<stop stop-color="white" stop-opacity="0.01"/>
<stop offset="0.490372" stop-color="white" stop-opacity="0.6"/>
<stop offset="1" stop-color="white" stop-opacity="0.01"/>
</linearGradient>
<linearGradient id="paint2_linear_28_1625" x1="21.5" y1="489" x2="7.57427" y2="490.017" gradientUnits="userSpaceOnUse">
<stop stop-color="#1FC6FF" stop-opacity="0"/>
<stop offset="1" stop-color="#1FC6FF"/>
</linearGradient>
<linearGradient id="paint3_linear_28_1625" x1="19" y1="489" x2="12.0001" y2="488.973" gradientUnits="userSpaceOnUse">
<stop stop-color="#1FC6FF" stop-opacity="0.3"/>
<stop offset="1" stop-color="#1FC6FF"/>
</linearGradient>
</defs>
</svg>
